<?xml version="1.0" ?><svg height="100" id="svg3070" version="1.1" width="100" xmlns="http://www.w3.org/2000/svg" xmlns:cc="http://creativecommons.org/ns#" xmlns:dc="http://purl.org/dc/elements/1.1/" xmlns:inkscape="http://www.inkscape.org/namespaces/inkscape" xmlns:rdf="http://www.w3.org/1999/02/22-rdf-syntax-ns#" xmlns:sodipodi="http://sodipodi.sourceforge.net/DTD/sodipodi-0.dtd" xmlns:svg="http://www.w3.org/2000/svg"><defs id="defs3"/><g id="layer1" transform="translate(0,-952.36218)"><g id="g3" transform="matrix(0.21445861,0,0,0.21445861,-40.275281,917.63655)"><rect height="120.135" id="rect5" width="376" x="232.94501" y="335"/><g id="g7"><g id="bag_18_"><g id="handles_18_"><path d="m 292.328,357.267 c -3.688,1.296 -6.382,2.403 -6.382,9.445 v 3.39 l 2.208,-0.445 v -2.927 c -0.055,-4.777 1.187,-5.776 4.41,-7.167 -0.015,-0.903 -0.095,-1.666 -0.236,-2.296 z" id="path11" style="fill:#ffffff"/><path d="m 298.749,355.76 c 0.146,0.682 0.263,1.424 0.342,2.221 5.772,-0.83 5.662,1.551 5.662,6.522 v 1.837 l 2.185,-0.448 v -1.389 c -10e-4,-7.72 -1.207,-9.788 -8.189,-8.743 z" id="path13" style="fill:#ffffff"/><path d="m 275.999,372.09 v -10.154 c -0.07,-6.289 3.179,-8.215 9.176,-9.621 9.034,-2.119 9.609,3.705 9.609,7.41 v 8.607 l 2.212,-0.447 v -7.97 c -0.022,-7.013 -2.209,-12.264 -12.262,-9.985 -5.415,1.229 -10.943,2.609 -10.943,11.797 v 10.803 l 2.208,-0.44 z" id="path15" style="fill:#ffffff"/></g><path d="m 317.992,366.357 -60.777,12.152 v 44.202 l 60.777,12.152 12.148,-4.418 v -59.67 l -12.148,-4.418 z m -34.223,47.212 -13.486,-1.901 v -11.194 h 13.486 v 13.095 z m 0,-14.794 h -13.486 v -10.297 l 13.486,-1.904 v 12.201 z m 18.694,17.385 -17.001,-2.485 v -13.201 h 17.001 v 15.686 z m 0,-17.385 h -17.001 v -12.301 l 17.001,-2.489 v 14.79 z" id="path17" style="fill:#ffffff"/></g></g><g id="g19"><path d="m 378.55,390.473 h -1.842 l -7.165,-24.234 c -0.359,-1.229 -0.562,-2.238 -0.606,-3.033 h -0.09 c -0.061,0.705 -0.292,1.7 -0.696,2.988 l -7.637,24.279 h -1.842 l -9.568,-32.209 h 2.493 l 7.345,25.809 c 0.284,1.018 0.517,1.969 0.696,2.852 h 0.09 c 0.015,-0.148 0.048,-0.328 0.101,-0.539 0.053,-0.209 2.932,-9.582 8.637,-28.121 h 1.123 l 7.3,25.809 c 0.359,1.317 0.591,2.268 0.696,2.852 h 0.09 l 0.157,-0.674 7.749,-27.986 h 2.403 l -9.434,32.207 z" id="path21" style="fill:#ffffff"/><path d="m 393.364,361.678 c -0.449,0 -0.847,-0.164 -1.19,-0.494 -0.345,-0.328 -0.517,-0.748 -0.517,-1.258 0,-0.494 0.176,-0.895 0.527,-1.201 0.351,-0.306 0.745,-0.461 1.18,-0.461 0.464,0 0.872,0.15 1.224,0.449 0.352,0.301 0.528,0.705 0.528,1.213 0,0.48 -0.173,0.892 -0.517,1.236 -0.345,0.344 -0.757,0.516 -1.235,0.516 z m -1.011,28.795 v -23 h 2.066 v 23 h -2.066 z" id="path23" style="fill:#ffffff"/><path d="m 416.959,390.473 v -13.387 c 0,-5.525 -1.992,-8.287 -5.975,-8.287 -2.187,0 -3.998,0.809 -5.436,2.426 -1.438,1.617 -2.156,3.631 -2.156,6.041 v 13.207 h -2.066 v -23 h 2.066 v 4.178 h 0.09 c 1.677,-3.158 4.297,-4.738 7.861,-4.738 2.5,0 4.405,0.823 5.716,2.471 1.311,1.646 1.966,4.013 1.966,7.098 v 13.992 h -2.066 z" id="path25" style="fill:#ffffff"/><path d="m 441.813,390.473 v -4.178 h -0.09 c -0.764,1.453 -1.883,2.605 -3.359,3.459 -1.475,0.854 -3.117,1.281 -4.93,1.281 -2.875,0 -5.195,-1.049 -6.963,-3.145 -1.766,-2.097 -2.65,-4.934 -2.65,-8.514 0,-2.381 0.438,-4.521 1.314,-6.424 0.875,-1.9 2.119,-3.383 3.729,-4.447 1.609,-1.063 3.439,-1.594 5.492,-1.594 3.443,0 5.898,1.414 7.367,4.244 h 0.09 v -14.734 h 2.066 v 34.051 h -2.066 z m 0,-13.993 c 0,-2.217 -0.701,-4.051 -2.102,-5.504 -1.398,-1.451 -3.199,-2.178 -5.4,-2.178 -2.441,0 -4.439,0.943 -5.998,2.83 -1.557,1.887 -2.336,4.41 -2.336,7.568 0,3.041 0.682,5.459 2.045,7.256 1.361,1.797 3.211,2.695 5.547,2.695 2.471,0 4.463,-0.775 5.975,-2.325 1.514,-1.55 2.27,-3.567 2.27,-6.054 v -4.288 z" id="path27" style="fill:#ffffff"/><path d="m 460.018,391.035 c -3.324,0 -5.971,-1.094 -7.941,-3.279 -1.969,-2.187 -2.953,-5.068 -2.953,-8.648 0,-3.758 1.008,-6.73 3.021,-8.916 2.014,-2.187 4.721,-3.279 8.119,-3.279 3.279,0 5.871,1.078 7.771,3.234 1.902,2.156 2.854,5.113 2.854,8.871 0,3.594 -0.988,6.496 -2.965,8.704 -1.977,2.209 -4.613,3.313 -7.906,3.313 z m 0.156,-22.236 c -2.709,0 -4.869,0.917 -6.48,2.751 -1.609,1.835 -2.414,4.368 -2.414,7.603 0,3.041 0.797,5.467 2.393,7.277 1.594,1.813 3.732,2.719 6.412,2.719 2.74,0 4.867,-0.898 6.379,-2.695 1.514,-1.797 2.27,-4.291 2.27,-7.48 0,-3.293 -0.742,-5.813 -2.225,-7.558 -1.484,-1.745 -3.595,-2.617 -6.335,-2.617 z" id="path29" style="fill:#ffffff"/><path d="m 495.629,390.473 h -1.932 l -5.008,-17.34 c -0.09,-0.299 -0.211,-0.943 -0.359,-1.932 h -0.113 c -0.014,0.301 -0.164,0.93 -0.449,1.887 l -5.615,17.385 h -1.932 l -6.939,-23 h 2.291 l 5.346,18.352 c 0.148,0.509 0.254,1.152 0.314,1.932 h 0.18 c 0.029,-0.345 0.172,-0.988 0.426,-1.932 l 5.84,-18.352 h 1.416 l 5.211,18.352 c 0.119,0.464 0.225,1.107 0.314,1.932 h 0.18 c 0,-0.404 0.127,-1.049 0.381,-1.932 l 5.459,-18.352 h 2.133 l -7.144,23 z" id="path31" style="fill:#ffffff"/><path d="m 505.613,389.463 v -2.494 c 0.689,0.6 1.6,1.112 2.73,1.539 1.129,0.427 2.121,0.641 2.975,0.641 3.609,0 5.414,-1.475 5.414,-4.426 0,-0.957 -0.363,-1.793 -1.09,-2.504 -0.727,-0.711 -2.047,-1.486 -3.965,-2.324 -2.08,-0.884 -3.598,-1.831 -4.547,-2.842 -0.951,-1.011 -1.428,-2.303 -1.428,-3.875 0,-1.826 0.709,-3.327 2.123,-4.503 1.416,-1.175 3.186,-1.763 5.313,-1.763 1.961,0 3.652,0.404 5.076,1.213 v 2.336 c -1.723,-1.108 -3.49,-1.662 -5.301,-1.662 -1.498,0 -2.715,0.396 -3.65,1.189 -0.936,0.795 -1.404,1.813 -1.404,3.055 0,0.885 0.139,1.572 0.416,2.066 0.277,0.494 0.748,0.971 1.416,1.427 0.666,0.457 1.635,0.962 2.908,1.517 2.455,1.093 4.117,2.104 4.986,3.031 0.867,0.93 1.303,2.143 1.303,3.639 0,1.887 -0.705,3.411 -2.111,4.571 -1.408,1.161 -3.279,1.741 -5.615,1.741 -2.232,0 -4.08,-0.525 -5.549,-1.572 z" id="path33" style="fill:#ffffff"/><path d="m 354.315,419.558 v 12.915 h -2.224 v -32.209 h 7.771 c 3.339,0 5.877,0.764 7.614,2.291 1.736,1.527 2.605,3.773 2.605,6.738 0,3.1 -1.008,5.585 -3.021,7.457 -2.013,1.872 -4.721,2.808 -8.119,2.808 h -4.626 z m 0,-17.25 v 15.206 h 4.582 c 2.92,0 5.132,-0.688 6.637,-2.066 1.505,-1.378 2.258,-3.339 2.258,-5.885 0,-4.837 -2.778,-7.255 -8.333,-7.255 h -5.144 z" id="path35" style="fill:#ffffff"/><path d="m 391.836,432.473 v -13.791 c 0,-2.726 -0.494,-4.721 -1.482,-5.986 -0.988,-1.265 -2.531,-1.897 -4.627,-1.897 -1.393,0 -2.662,0.374 -3.808,1.123 -1.146,0.749 -2.04,1.801 -2.684,3.155 -0.645,1.355 -0.966,2.909 -0.966,4.661 v 12.735 h -2.066 v -34.051 h 2.066 v 15.184 h 0.09 c 1.826,-3.13 4.462,-4.694 7.906,-4.694 2.5,0 4.398,0.798 5.693,2.392 1.295,1.596 1.943,3.897 1.943,6.907 v 14.263 h -2.065 z" id="path37" style="fill:#ffffff"/><path d="m 409.592,433.034 c -3.324,0 -5.972,-1.093 -7.94,-3.279 -1.968,-2.186 -2.953,-5.068 -2.953,-8.647 0,-3.759 1.007,-6.73 3.021,-8.917 2.014,-2.187 4.721,-3.279 8.12,-3.279 3.279,0 5.869,1.078 7.771,3.234 1.901,2.156 2.853,5.113 2.853,8.872 0,3.594 -0.988,6.495 -2.965,8.703 -1.977,2.209 -4.613,3.313 -7.907,3.313 z m 0.158,-22.236 c -2.711,0 -4.871,0.917 -6.48,2.751 -1.609,1.835 -2.414,4.369 -2.414,7.604 0,3.04 0.797,5.466 2.392,7.277 1.595,1.811 3.732,2.718 6.413,2.718 2.74,0 4.866,-0.898 6.379,-2.695 1.512,-1.797 2.269,-4.29 2.269,-7.479 0,-3.294 -0.741,-5.813 -2.224,-7.559 -1.484,-1.745 -3.595,-2.617 -6.335,-2.617 z" id="path39" style="fill:#ffffff"/><path d="m 441.34,432.473 v -13.387 c 0,-5.525 -1.99,-8.288 -5.975,-8.288 -2.186,0 -3.998,0.809 -5.436,2.426 -1.438,1.617 -2.156,3.631 -2.156,6.042 v 13.207 h -2.066 v -23 h 2.066 v 4.178 h 0.09 c 1.678,-3.159 4.299,-4.739 7.861,-4.739 2.502,0 4.406,0.823 5.717,2.471 1.311,1.648 1.965,4.013 1.965,7.098 v 13.993 h -2.066 z" id="path41" style="fill:#ffffff"/><path d="m 450.359,421.063 c 0,3.189 0.732,5.668 2.201,7.435 1.467,1.767 3.467,2.65 5.996,2.65 2.592,0 5.107,-0.951 7.547,-2.853 v 2.201 c -2.395,1.692 -5.053,2.538 -7.973,2.538 -3.025,0 -5.436,-1.089 -7.232,-3.269 -1.797,-2.178 -2.695,-5.154 -2.695,-8.928 0,-2.216 0.445,-4.241 1.336,-6.076 0.891,-1.834 2.127,-3.268 3.707,-4.301 1.578,-1.033 3.334,-1.55 5.266,-1.55 2.801,0 4.979,0.988 6.537,2.965 1.557,1.977 2.336,4.731 2.336,8.266 v 0.921 h -17.026 z m 14.87,-1.887 c -0.09,-2.665 -0.73,-4.729 -1.92,-6.188 -1.191,-1.461 -2.82,-2.19 -4.887,-2.19 -2.17,0 -3.961,0.727 -5.367,2.179 -1.408,1.452 -2.277,3.519 -2.605,6.199 h 14.779 z" id="path43" style="fill:#ffffff"/></g></g></g></svg>